<?xml version="1.0" encoding="utf-8"?>
<!-- Generator: Adobe Illustrator 24.3.0, SVG Export Plug-In . SVG Version: 6.00 Build 0)  -->
<svg version="1.1" id="Слой_1" xmlns="http://www.w3.org/2000/svg" xmlns:xlink="http://www.w3.org/1999/xlink" x="0px" y="0px"
	 viewBox="0 0 100 100" style="enable-background:new 0 0 100 100;" xml:space="preserve">
<style type="text/css">
	.st0{fill:#FFFFFF;}
</style>
<path class="st0" d="M39.9,47.6c-0.5,5.6-1,11.1-1.5,16.7c1.1,0.2,2.7,0.6,4.7,1.4c5.6,2.2,6.3,4.7,9.2,4.7c2.8,0,3.2-2.2,8-4.3
	c2.7-1.2,5.2-1.6,6.9-1.8c-0.3-7-0.5-12.1-0.5-13.2c0-0.6,0.1-1.1,0.1-1.2c0.1-0.7,0.3-1.3,0.5-1.8c0.5-1.2,0.9-1.9,1.1-2.4
	c0.4-0.8,0.8-1.8,1.2-3.3c0.3-0.7,0.5-1.5,0.8-2.4c0.3-1,0.5-2,0.6-2.9c0-1.3,0-2.7,0-4.2c-0.1-1.7-0.2-3.3-0.3-4.9
	c0.3-1.7,0.6-3.4,0.9-5.1c-0.2-0.6-0.5-1.5-1.1-2.5c-0.7-1-1.5-1.7-2-2.1c-0.5-0.5-1-1.1-1.5-1.8c-0.4-0.6-0.7-1.1-1-1.6
	c-1.5-0.3-2.9-0.6-4.4-0.9c-0.1-0.1-0.2-0.2-0.3-0.4c-0.2-0.2-0.3-0.3-0.4-0.5c-0.1-0.2-0.1-0.2-0.3-0.5c-0.2-0.4-0.3-0.5-0.4-0.5
	c-0.1-0.1-0.3-0.2-0.4-0.3c-1.8-0.3-3.6-0.7-5.4-1c-0.4,0.2-0.7,0.3-1.1,0.5c-1.1-0.9-2.2-1.7-3.3-2.6c-1.5,0-3,0-4.5,0
	c-0.5,0.3-1.1,0.7-1.6,1l-3.5-1.7l-5.8,1.8l-3.4,6.1c0.2,2.3,0.4,4.5,0.5,6.8c-0.4,0.7-0.9,1.5-1.4,2.5c-0.4,0.9-0.7,1.8-0.9,2.6
	c-0.1,0.5,0,0.9,0.1,1.2c0.1,0.5,0.3,0.6,0.5,1.3c0.1,0.3,0.1,0.4,0.2,0.9c0,0,0.1,0.4,0.2,0.8c0.2,0.6,0.9,2.2,1.9,4.3
	c0.9,1.3,1.9,2.7,3,4.1c1.4,1.9,2.8,3.6,4.2,5.3C39.7,46.2,39.8,46.9,39.9,47.6z"/>
<path class="st0" d="M23.7,62.4c1.3,0.4,2.6,0.9,3.9,1.3c2.2,0.6,4,0.8,5.2,1c1.3,0.1,2.2,0.2,3.8,0.4c0,0,1.6,0.3,3.1,0.6
	c3.4,0.9,6.7,2.6,8.2,3.4c0.4,0.3,1,0.6,1.5,1.1c0.5,0.5,1,0.9,1.3,1.3c0.1,0.2,0.1,0.3,0.2,0.5c0.1,0.3,0.2,0.6,0.2,0.8
	c0.2,0.6,0.2,1,0.4,1.1c0.1,0.1,0.2,0,0.3,0c0,7.5,0,14.9,0,22.4c-0.1-0.3-0.2-0.8-0.5-1.4c-0.1-0.1-0.4-0.7-1.2-1.6
	c-0.7-0.7-1.3-1.1-1.7-1.4c-0.5-0.4-1.3-0.9-3.3-1.8c-0.8-0.4-1.9-0.9-3.4-1.5c-1.1-0.5-2.2-0.9-3.8-1.4c-1.1-0.3-2.7-0.9-4.9-1.2
	c-0.9-0.1-1.8-0.2-2.5-0.3c-1.3-0.1-1.7-0.1-2.7-0.3c-0.7-0.1-1.9-0.2-3.3-0.5c-1.7-0.3-3-0.7-4-1c-1.1-0.3-2.4-0.8-3.8-1.4
	C19.2,75.8,21.5,69.1,23.7,62.4z"/>
<path class="st0" d="M52.9,74.1c0.1,0,0.3-0.1,0.4-0.1c0.1-0.1,0.2-0.2,0.3-0.4c0.1-0.2,0.1-0.3,0.3-1.3c0.1-0.3,0.1-0.5,0.2-0.7
	c0.1-0.2,0.2-0.3,0.3-0.4c0.7-0.6,1.4-1.2,2.3-1.8c2.4-1.6,4.7-2.6,6.6-3.2c1.9-0.3,3.7-0.7,5.6-1c1.3-0.2,2.3-0.3,3-0.4
	c0.5-0.1,1.3-0.1,2.3-0.3c0.4-0.1,0.8-0.1,1.3-0.2c0.9-0.2,1.8-0.5,2.7-0.8c1.1-0.4,2.1-0.7,3.1-1.1c2.3,6.8,5.7,13.6,8,20.4
	c-2.1,0.7-4.1,1.3-6.2,2c-0.8,0.2-1.6,0.4-2.5,0.5c-0.8,0.1-1.6,0.2-2.4,0.3c-1.7,0.2-3.4,0.4-5.1,0.6c-0.6,0.1-1.4,0.2-2.3,0.4
	c-0.5,0.1-2.5,0.3-4.1,0.9c-1.1,0.4-2.5,0.9-4.2,1.6c-1,0.4-2.1,0.9-3.3,1.5c-1.1,0.6-2.1,1.2-2.9,1.8c-0.5,0.4-1.1,0.9-1.6,1.3
	c-0.3,0.3-0.7,0.8-1.1,1.4C53,96.1,53,97,53,97C52.8,97,52.8,92,52.9,74.1z"/>
<path class="st0" d="M89.7,84.1c0.2,0.5,0.5,1,0.7,1.6c0.3,0.9,0.4,1.7,0.5,2.4c-1.2,0.3-2.5,0.6-3.8,0.8c-1.3,0.2-2.5,0.4-3.7,0.6
	c-0.8,0-2.1,0.1-3.7,0.1c-1.4,0-2,0-3.5,0c-0.9,0-2.3,0-4,0.1c-1.1,0.1-3.5,0.2-4.8,0.5c-1.7,0.3-3.2,0.8-4.4,1.2
	c-1.3,0.4-2.6,0.8-3.9,1.3c1-0.6,2-1.1,3.2-1.6c1.1-0.5,2.2-0.9,3.3-1.3c1.1-0.4,1.6-0.6,2.3-0.8c0.9-0.3,3.2-0.6,4.6-0.9
	c0.9-0.1,2.3-0.3,3.9-0.4c2.2-0.2,2.8-0.3,3.7-0.4c1.2-0.2,2.8-0.5,4.6-0.9C86.2,85.4,87.9,84.8,89.7,84.1z"/>
<path class="st0" d="M91.1,89.8c0.2,1.4,0.3,2.8,0.5,4.3c-2.1,0.1-4.3,0.2-6.4,0.4c-1.2,0-2.5-0.1-3.9-0.3c-2.2-0.2-4.2-0.5-6.1-0.9
	C74,93,73,92.9,72,92.9c-1.6-0.1-3.9,0-4.2,0c-0.9,0.1-1.6,0.2-2.2,0.2c-0.6,0.1-1.2,0.2-2,0.3c-1,0.2-2.6,0.5-4.7,1
	c0.8-0.4,1.7-0.7,2.7-1c1.3-0.5,2.4-0.8,3-0.9c3.1-0.8,6.7-1.1,7.5-1.1c1.2-0.1,2.8-0.2,4.6-0.1c1.6,0.2,3.6,0.3,5.8,0.1
	c1.5-0.1,2.8-0.3,3.9-0.6C88.1,90.4,89.6,90.1,91.1,89.8z"/>
<path class="st0" d="M91.6,95.7c0.1,1.3,0.1,2.7,0.2,4c-1.6,0-3.5-0.1-5.5-0.3c-1.4-0.2-2.7-0.4-3.9-0.7c-1.8-0.6-3.6-1.1-5.3-1.7
	c-0.9-0.3-1.9-0.6-3-0.8c-1.3-0.2-2.4-0.4-3.5-0.4c-1-0.1-3.3-0.1-4.5-0.2c-0.9,0-1.8,0-2.6,0c-1.2,0.1-2.4,0.2-3.6,0.3
	c0.8-0.2,1.7-0.4,2.6-0.6c2.2-0.4,4.4-0.7,6.3-0.8c0.6-0.1,2.5-0.1,3.3-0.1c0.7,0,1.3,0.1,1.8,0.1c1.2,0.2,2.5,0.4,3.7,0.6
	c1.7,0.3,3.3,0.5,5,0.8c1,0.1,2.2,0.2,3.4,0.2c1,0,1.9,0,2.8-0.1C89.7,95.9,90.7,95.8,91.6,95.7z"/>
<path class="st0" d="M45.3,95.9c-1.9-0.1-3.9-0.2-5.8-0.3c-0.6,0-1.4,0-2.4,0c-0.9,0.1-1.6,0.2-2.4,0.3c-0.8,0.1-1.8,0.3-3,0.6
	c-1.5,0.4-3,0.8-4.5,1.1c-1.1,0.4-2.4,0.8-3.8,1.1c-1.5,0.4-3,0.6-4.3,0.8c-1.6,0.1-3.2,0.1-4.8,0.2c0.1-1.3,0.2-2.7,0.3-4
	c0.8,0.1,1.9,0.3,3.3,0.4c0.9,0.1,2.4,0.1,4.3,0c0.9-0.1,2.1-0.2,3.5-0.5c1.4-0.2,2.7-0.4,4.1-0.6c0.8-0.1,1.7-0.2,2.7-0.3
	c1.2-0.1,2.2-0.1,3.2,0c1.2,0,2.5,0.1,3.8,0.3C41.6,95.2,43.6,95.5,45.3,95.9z"/>
<path class="st0" d="M14.7,94.1c1.8,0.1,3.5,0.2,5.3,0.3c1.7-0.1,3.5-0.2,5.4-0.4c1.9-0.2,3.7-0.5,5.4-0.9c0.9-0.1,1.9-0.2,3-0.2
	c1.1,0,2.2,0,3.1,0.1c0.7,0.1,1.5,0.1,2.2,0.2c0.9,0.1,1.9,0.2,2.9,0.3c1.6,0.2,3.1,0.6,4.4,1c-0.8-0.4-1.6-0.7-2.5-1.1
	c-1.3-0.5-2.6-0.8-3.7-1c-1.3-0.3-2.7-0.6-4.3-0.8c-0.8-0.1-1.5-0.1-2.7-0.2c-1.2-0.1-2.9-0.1-5-0.1c-1.2,0.1-2.6,0.1-4.1,0
	c-1.2-0.1-2.3-0.2-3.4-0.4c-1.8-0.3-3.6-0.6-5.4-1C14.9,91.2,14.8,92.7,14.7,94.1z"/>
<path class="st0" d="M15.2,88c0.4-1.3,0.8-2.6,1.2-3.9c1.8,0.7,3.6,1.3,5.5,2c0.6,0.2,1.2,0.3,1.9,0.5c0.8,0.2,1.5,0.3,2.2,0.4
	c1.4,0.1,2.9,0.3,4.3,0.4c1,0.1,2.1,0.2,3.3,0.4c1.1,0.2,2.2,0.4,3.1,0.7c2,0.7,3.9,1.5,5.9,2.2c1.3,0.6,2.6,1.3,3.9,1.9
	c-1.6-0.5-3.1-1-4.7-1.5c-1.2-0.3-2.4-0.6-3.6-0.9c-1.1-0.2-2.2-0.4-3.4-0.5c-1.8-0.2-3.4-0.2-4.9-0.2c-1.7,0-3.3,0.1-5,0.1
	c-0.8,0-1.7-0.1-2.6-0.2c-0.8-0.1-1.6-0.2-2.3-0.3C18.4,88.7,16.8,88.3,15.2,88z"/>
<path class="st0" d="M35.8,88.3"/>
<path class="st0" d="M28.6,20.8h44c0-4.8,0-9.6,0-14.3c0-0.4,0-2.1,1.6-3.5c1.7-1.6,4-1.7,4.5-1.7c0.5,0.1,2.6,0.3,4.2,1.8
	c1.7,1.6,1.7,3.4,1.7,3.8c0,12.8-0.1,25.5-0.1,38.3c0,0.3-0.1,2.1-1.9,3.5c-1.7,1.2-3.6,1.3-4,1.2c-0.6,0-2.2-0.2-3.7-1.3
	c-1.8-1.3-2.1-3-2.2-3.4c0-5.1,0-10.1,0-15.2c-14.6,0-29.3,0-43.9,0c0,4.9,0,9.8,0,14.7c0,0.4-0.2,2.6-2.5,4c-1.3,0.8-2.6,1-3.3,1.1
	c-0.6,0-2.1,0-3.4-0.7c-2.8-1.5-2.7-4.5-2.7-4.6c0-12.8,0-25.6,0-38.3c0-0.4,0.1-2,1.7-3.4C20,1.2,21.9,1,22.4,1
	c0.7,0.1,2.2,0.4,3.6,1.4c1.8,1.3,2.2,2.9,2.4,3.4C28.5,10.8,28.5,15.8,28.6,20.8z"/>
<path class="st0" d="M10.5,8.4c0.6,0,2-0.1,3.3,0.7c1.3,0.9,1.6,2,1.7,2.3c0,9.3,0,18.6,0,27.9c-0.3,0.4-0.7,1-1.5,1.6
	c-1.3,0.9-2.8,1.1-3.4,1.2C10,42.1,9,41.9,8,41.3c-1.5-0.9-1.9-2.2-2.1-2.6c0-9.1,0-18.2,0-27.4C6,11,6.5,9.7,8,8.9
	C9,8.4,10,8.4,10.5,8.4z"/>
<path class="st0" d="M90,8.6c0.8,0,2.1,0,3.3,0.7c1.3,0.9,1.6,2,1.7,2.3c0,9.3,0,18.6,0,27.9c-0.3,0.4-0.7,1-1.5,1.6
	c-1.3,0.9-2.8,1.1-3.4,1.2c-0.5,0-1.6-0.2-2.6-0.8c-1.5-0.9-1.9-2.2-2.1-2.6c0-9.1,0-18.2,0-27.4c0.1-0.3,0.4-1.6,1.8-2.4
	C88.2,8.6,89.3,8.6,90,8.6z"/>
<path class="st0" d="M97.4,17.7c0.1,0,0.8-0.1,1.5,0.3c0.6,0.4,0.7,0.9,0.7,1c0,4.1,0,8.3,0,12.4c-0.1,0.2-0.3,0.5-0.7,0.7
	c-0.6,0.4-1.2,0.5-1.5,0.5c-0.2,0-0.7-0.1-1.2-0.4c-0.7-0.4-0.9-1-0.9-1.1c0-4.1,0-8.1,0-12.2c0.1-0.2,0.3-0.6,0.8-0.9
	C96.7,17.8,97.2,17.8,97.4,17.7z"/>
<path class="st0" d="M3.1,17.7c0.1,0,0.8-0.1,1.5,0.3c0.6,0.4,0.7,0.9,0.7,1c0,4.1,0,8.3,0,12.4C5.2,31.7,5,32,4.6,32.2
	c-0.6,0.4-1.2,0.5-1.5,0.5c-0.2,0-0.7-0.1-1.2-0.4C1.2,32,1,31.4,1,31.3c0-4.1,0-8.1,0-12.2c0.1-0.2,0.3-0.6,0.8-0.9
	C2.3,17.8,2.9,17.8,3.1,17.7z"/>
</svg>
