<!-- icon666.com - MILLIONS vector ICONS FREE --><svg fill="#ffffff" clip-rule="evenodd" fill-rule="evenodd" stroke-linejoin="round" stroke-miterlimit="2" viewBox="0 0 24 24" xmlns="http://www.w3.org/2000/svg" xmlns:serif="http://www.serif.com/"><path id="path2" d="m19 17.621c0-.663-.263-1.299-.732-1.767-.201-.201-.446-.446-.682-.682-.75-.75-1.768-1.172-2.829-1.172h-5.514c-1.061 0-2.079.422-2.829 1.172-.236.236-.481.481-.682.682-.469.468-.732 1.104-.732 1.767v1.879c0 .663.263 1.299.732 1.768s1.105.732 1.768.732h9c.663 0 1.299-.263 1.768-.732s.732-1.105.732-1.768zm-3-11.621c0-2.209-1.791-4-4-4s-4 1.791-4 4v2c0 2.209 1.791 4 4 4s4-1.791 4-4z"></path></svg>
